<?xml version="1.0" encoding="UTF-8" standalone="no"?>
<!-- Generator: Adobe Illustrator 18.0.0, SVG Export Plug-In . SVG Version: 6.00 Build 0)  -->

<svg
  version="1.1"
  id="Capa_1"
  x="0px"
  y="0px"
  viewBox="0 0 58 58"
  style="enable-background:new 0 0 58 58;"
  xml:space="preserve"
  xmlns="http://www.w3.org/2000/svg"
><defs
   id="defs63" />
  <g
    id="g28"
    transform="translate(5.3)">
	<g
    id="g18">
		<polygon
      style="fill:#efebde"
      points="1.5,0 1.5,58 46.5,58 46.5,14 32.5,0 "
      id="polygon2"/>
    <g
      id="g14">
			<path
        style="fill:#d5d0bb"
        d="m 11.5,23 h 25 c 0.552,0 1,-0.447 1,-1 0,-0.553 -0.448,-1 -1,-1 h -25 c -0.552,0 -1,0.447 -1,1 0,0.553 0.448,1 1,1 z"
        id="path4"/>
      <path
        style="fill:#d5d0bb"
        d="m 11.5,15 h 10 c 0.552,0 1,-0.447 1,-1 0,-0.553 -0.448,-1 -1,-1 h -10 c -0.552,0 -1,0.447 -1,1 0,0.553 0.448,1 1,1 z"
        id="path6"/>
      <path
        style="fill:#d5d0bb"
        d="m 36.5,29 h -25 c -0.552,0 -1,0.447 -1,1 0,0.553 0.448,1 1,1 h 25 c 0.552,0 1,-0.447 1,-1 0,-0.553 -0.448,-1 -1,-1 z"
        id="path8"/>
      <path
        style="fill:#d5d0bb"
        d="m 36.5,37 h -25 c -0.552,0 -1,0.447 -1,1 0,0.553 0.448,1 1,1 h 25 c 0.552,0 1,-0.447 1,-1 0,-0.553 -0.448,-1 -1,-1 z"
        id="path10"/>
      <path
        style="fill:#d5d0bb"
        d="m 36.5,45 h -25 c -0.552,0 -1,0.447 -1,1 0,0.553 0.448,1 1,1 h 25 c 0.552,0 1,-0.447 1,-1 0,-0.553 -0.448,-1 -1,-1 z"
        id="path12"/>
		</g>
    <polygon
      style="fill:#d5d0bb"
      points="46.5,14 32.5,0 32.5,14 "
      id="polygon16"/>
	</g>
    <g
      id="g26">
		<rect
      x="13.61396"
      y="28.063818"
      style="fill:#cbb292"
      width="20"
      height="16"
      id="rect20"/>
      <path
        style="fill:#7f5c53"
        d="m 26.61396,35.063818 c 0,-1.657 -1.343,-3 -3,-3 -1.657,0 -3,1.343 -3,3 0,1.317 0.854,2.424 2.035,2.827 -0.011,0.058 -0.035,0.112 -0.035,0.173 v 2 c 0,0.552 0.448,1 1,1 0.552,0 1,-0.448 1,-1 v -2 c 0,-0.061 -0.024,-0.115 -0.035,-0.173 1.181,-0.403 2.035,-1.51 2.035,-2.827 z"
        id="path22"/>
      <path
        style="fill:#bdc3c7"
        d="m 18.61396,26.063818 c 0,-2.757 2.243,-5 5,-5 2.757,0 5,2.243 5,5 v 2 h 2 v -2 c 0,-3.86 -3.14,-7 -7,-7 -3.86,0 -7,3.14 -7,7 v 2 h 2 z"
        id="path24"/>
	</g>
</g>
  <g
    id="g30">
</g>
  <g
    id="g32">
</g>
  <g
    id="g34">
</g>
  <g
    id="g36">
</g>
  <g
    id="g38">
</g>
  <g
    id="g40">
</g>
  <g
    id="g42">
</g>
  <g
    id="g44">
</g>
  <g
    id="g46">
</g>
  <g
    id="g48">
</g>
  <g
    id="g50">
</g>
  <g
    id="g52">
</g>
  <g
    id="g54">
</g>
  <g
    id="g56">
</g>
  <g
    id="g58">
</g>
  <g
    id="g2443"
    transform="matrix(1.6218621,0,0,1.6218621,-25.469185,-28.338614)"><circle
     style="opacity:0.4;fill:#d0e8f9"
     cx="33.823982"
     cy="37.749001"
     id="circle20"
     r="9.7959995" />
    <path
      style="fill:#8697cb"
      d="M 47.77,51.244 41.8,45 c 1.746,-1.919 2.82,-4.458 2.82,-7.251 0,-5.953 -4.842,-10.796 -10.796,-10.796 -5.954,0 -10.796,4.843 -10.796,10.796 0,5.953 4.843,10.796 10.796,10.796 2.442,0 4.689,-0.824 6.499,-2.196 l 6.001,6.276 c 0.196,0.206 0.459,0.309 0.723,0.309 0.249,0 0.497,-0.092 0.691,-0.277 0.399,-0.381 0.414,-1.015 0.032,-1.413 z M 25.029,37.749 c 0,-4.85 3.946,-8.796 8.796,-8.796 4.85,0 8.796,3.946 8.796,8.796 0,4.85 -3.946,8.796 -8.796,8.796 -4.85,0 -8.796,-3.946 -8.796,-8.796 z"
      id="path24-8"/></g></svg>
